<?xml version="1.0" encoding="utf-8"?>
<!-- Generator: Adobe Illustrator 24.2.0, SVG Export Plug-In . SVG Version: 6.00 Build 0)  -->
<svg version="1.1" id="Capa_1" xmlns="http://www.w3.org/2000/svg" xmlns:xlink="http://www.w3.org/1999/xlink" x="0px" y="0px"
   viewBox="0 0 800 800" style="enable-background:new 0 0 800 800;" xml:space="preserve">
<style type="text/css">
  .st0{fill:#FF0000;}
  .st1{fill:#A81A1A;}
</style>
<g>
  <path class="st0" d="M670.3,759.5c-10.8,0-21-4.2-28.7-11.9L400,506L158.4,747.6c-7.7,7.7-17.9,11.9-28.7,11.9
    c-10.8,0-21-4.2-28.7-11.9L52.4,699c-15.8-15.8-15.8-41.6,0-57.4L294.1,400L52.4,158.4c-7.7-7.7-11.9-17.9-11.9-28.7
    c0-10.8,4.2-21,11.9-28.7l48.5-48.6c7.7-7.7,17.9-11.9,28.7-11.9c10.8,0,21,4.2,28.7,11.9L400,294.1L641.7,52.4
    c7.7-7.7,17.9-11.9,28.7-11.9c10.8,0,21,4.2,28.7,11.9l48.6,48.6c7.7,7.7,11.9,17.9,11.9,28.7c0,10.8-4.2,21-11.9,28.7L505.9,400
    l241.6,241.6c15.8,15.8,15.8,41.6,0,57.4L699,747.6C691.4,755.3,681.2,759.5,670.3,759.5z"/>
  <path class="st1" d="M670.4,58c6.1,0,12,2.4,16.3,6.8l48.6,48.6c9,9,9,23.6,0,32.6l-254,254l254,254c9,9,9,23.6,0,32.6l-48.6,48.6
    c-4.3,4.3-10.2,6.8-16.3,6.8c-6.1,0-12-2.4-16.3-6.8l-254-254l-254,254c-4.3,4.3-10.2,6.8-16.3,6.8c-6.1,0-12-2.4-16.3-6.8
    l-48.6-48.6c-9-9-9-23.6,0-32.6l254-254l-254-254c-9-9-9-23.6,0-32.6l48.6-48.6c4.3-4.3,10.2-6.8,16.3-6.8c6.1,0,12,2.4,16.3,6.8
    l254,254l254-254C658.4,60.5,664.2,58,670.4,58 M670.4,23c-15.5,0-30.1,6-41.1,17L400,269.3L170.7,40c-11-11-25.6-17-41.1-17
    c-15.5,0-30.1,6-41.1,17L40,88.6c-11,11-17,25.5-17,41.1c0,15.5,6,30.1,17,41.1L269.3,400L40,629.3c-22.6,22.7-22.6,59.5,0,82.1
    L88.6,760c11,11,25.6,17,41.1,17c15.5,0,30.1-6,41.1-17L400,530.7L629.3,760c11,11,25.6,17,41.1,17c15.5,0,30.1-6,41.1-17
    l48.6-48.6c22.6-22.6,22.6-59.5,0-82.1L530.7,400L760,170.7c11-11,17-25.6,17-41.1c0-15.5-6-30.1-17-41.1L711.4,40
    C700.5,29.1,685.9,23,670.4,23L670.4,23z"/>
</g>
</svg>
