<?xml version="1.0" encoding="utf-8"?>
<svg xmlns="http://www.w3.org/2000/svg" viewBox="0 0 1263.18 1364.08">
    <path d="M1315.49,847A491,491,0,0,0,958,693c-271.72,0-492,220.28-492,492s220.28,492,492,492,492-220.28,492-492A490.31,490.31,0,0,0,1315.49,847ZM819.4,781.79C751.34,834.51,663.66,864.67,615,1018c-5.63,17.75-18.1,32.82-35,40.61-11,5.06-23.13,5.58-33.54-5.59-7.14-7.67-12.67-18.39-10.06-28.55,40.14-156.33,189-230.11,278.77-251.55A5,5,0,0,1,819.4,781.79Z" transform="translate(-466 -312.92)"/>
    <rect x="1190.03" y="705.91" width="157" height="148.12" rx="35.88" transform="translate(297.95 -934) rotate(38.61)"/>
    <path d="M1637.52,377.44c-23.91,7.2-47.35,15.68-69.1,26.76A239.64,239.64,0,0,0,1537.6,423a154.09,154.09,0,0,0-25.93,23.56c-1.85,2.2-3.77,4.32-5.45,6.64-.85,1.13-1.74,2.25-2.58,3.4l-2.4,3.51-1.2,1.75-1.1,1.82-2.21,3.61-2,3.72-1,1.85-.92,1.9-1.83,3.8-1.66,3.88-.83,1.93-.74,2c-.49,1.32-1,2.63-1.47,3.95-1.8,5.36-3.38,10.79-4.65,16.36a235,235,0,0,0-5.06,34.52c-.5,5.92-.85,11.93-1.12,18s-.48,12.28-.71,18.57-.43,12.67-.72,19.22-.61,13.2-1.36,20.1a186.35,186.35,0,0,1-3.31,21.25,114,114,0,0,1-7.29,22.23l-.62,1.4-.7,1.38-1.42,2.76c-.91,1.85-2,3.66-3.14,5.45-.57.89-1.1,1.8-1.71,2.68l-1.87,2.6-1.89,2.59c-.66.84-1.38,1.64-2.08,2.46a87.9,87.9,0,0,1-19.11,16.89c-1.73,1.18-3.53,2.15-5.3,3.22-.9.5-1.78,1.08-2.69,1.52l-2.72,1.32a106.67,106.67,0,0,1-11,4.66,131.46,131.46,0,0,1-21.81,5.64c-1.79.28-3.61.67-5.38.85l-5.32.63-2.66.29-2,.18-4,.35a131.7,131.7,0,0,0-15.13,2.43,75.16,75.16,0,0,0-13.51,4.33,59.81,59.81,0,0,0-12.15,7.11,92,92,0,0,0-11.75,11c-1,1-2,2.2-3,3.3l-3,3.49-6.29,7.26c-8.6,9.83-19,19.84-31.19,25.5a2.61,2.61,0,0,1-3.33-3.71l0,0a129.33,129.33,0,0,0,8.44-16.39c2.35-5.55,4.38-11.14,6.4-17s4.15-11.91,6.93-18.21a98,98,0,0,1,10.71-19,85.24,85.24,0,0,1,16.47-17,98.57,98.57,0,0,1,20.17-12.07,139.33,139.33,0,0,1,21.06-7.44c1.75-.47,3.49-.85,5.24-1.28l2.62-.61,2-.52,3.92-1c1.33-.29,2.53-.75,3.8-1.11s2.54-.7,3.75-1.11l3.58-1.26c.59-.21,1.2-.4,1.77-.62l1.7-.67c1.11-.46,2.28-.87,3.36-1.35a90.74,90.74,0,0,0,11.78-6.19,54.65,54.65,0,0,0,9.3-7.47,53.38,53.38,0,0,0,7.64-9.62,67.56,67.56,0,0,0,6.25-12.72,126.26,126.26,0,0,0,4.72-15.41c1.32-5.45,2.43-11.23,3.39-17.13.48-3,.93-6,1.34-9l1.18-9.2c.76-6.18,1.51-12.48,2.36-18.86s1.77-12.81,2.88-19.3a262.77,262.77,0,0,1,9.59-39.05,199.11,199.11,0,0,1,7.7-19.08c.74-1.56,1.53-3.1,2.3-4.64l1.16-2.31,1.26-2.26,2.54-4.52,2.75-4.39,1.39-2.19,1.49-2.12,3-4.23,3.18-4.08,1.59-2,1.69-1.95,3.37-3.89c1.16-1.26,2.36-2.47,3.54-3.71,2.32-2.51,4.87-4.78,7.34-7.1a177,177,0,0,1,32.69-23.13,234.66,234.66,0,0,1,35.6-16,349.05,349.05,0,0,1,36.87-10.59l9.32-2c3.11-.61,6.23-1.15,9.34-1.72l4.67-.85,4.68-.72,9.37-1.37a2.5,2.5,0,0,1,1.09,4.87Z" transform="translate(-466 -312.92)"/>
    <path d="M1421.62,406.08c-8.07-5.91-15.72-12.14-23.27-18.45l-5.62-4.77L1387.2,378l-5.41-4.93-5.33-5c-1.77-1.67-3.66-3.24-5.61-4.77s-4-3-5.88-4.56a34.78,34.78,0,0,1-5.17-5.12,32.81,32.81,0,0,1-3.85-6.15,58.45,58.45,0,0,1-4.83-14.52,60.85,60.85,0,0,1-1-8.38c-.05-1.49-.08-3,0-4.57a39,39,0,0,1,.49-5l2.76-2.16a39.1,39.1,0,0,1,4.93.73c1.55.31,3,.71,4.43,1.12a60.44,60.44,0,0,1,7.89,3,58.19,58.19,0,0,1,12.92,8.23,32.63,32.63,0,0,1,5,5.23,34.23,34.23,0,0,1,3.71,6.25c1.06,2.23,2,4.54,3,6.81s2.07,4.48,3.26,6.61l3.54,6.38,3.47,6.45,3.34,6.54,3.26,6.61c4.28,8.85,8.47,17.79,12.23,27.05Z" transform="translate(-466 -312.92)"/>
    <path d="M1531.35,636.89c8.07,5.91,15.72,12.14,23.27,18.45l5.62,4.77,5.53,4.83,5.41,4.93,5.33,5c1.77,1.67,3.66,3.24,5.61,4.77s4,3,5.88,4.56a34.78,34.78,0,0,1,5.17,5.12,32.81,32.81,0,0,1,3.85,6.15,58.45,58.45,0,0,1,4.83,14.52,60.85,60.85,0,0,1,1,8.38c.05,1.49.08,3,0,4.57a39,39,0,0,1-.49,5l-2.76,2.16a39.1,39.1,0,0,1-4.93-.73c-1.55-.31-3-.7-4.43-1.12a60.44,60.44,0,0,1-7.89-3,58.76,58.76,0,0,1-12.92-8.22,33.12,33.12,0,0,1-5-5.24,34.23,34.23,0,0,1-3.71-6.25c-1.06-2.23-2-4.54-3-6.81s-2.07-4.48-3.26-6.61l-3.54-6.38-3.47-6.45-3.34-6.54-3.26-6.61c-4.28-8.85-8.47-17.79-12.23-27.05Z" transform="translate(-466 -312.92)"/>
    <path d="M1613.76,469.72c9.62-2.73,19.24-4.93,28.86-7l7.21-1.5,7.21-1.39,7.22-1.23,7.21-1.13c2.41-.37,4.81-.89,7.21-1.49s4.81-1.29,7.22-1.83a34.9,34.9,0,0,1,7.21-.92,32.79,32.79,0,0,1,7.22.74,58.55,58.55,0,0,1,14.42,5.12,61.83,61.83,0,0,1,7.22,4.38c1.2.87,2.4,1.78,3.6,2.81a38.23,38.23,0,0,1,3.61,3.44v3.5a37,37,0,0,1-3.61,3.44c-1.2,1-2.4,1.94-3.6,2.81a60.49,60.49,0,0,1-7.22,4.38,58.55,58.55,0,0,1-14.42,5.12,32.19,32.19,0,0,1-7.22.74,35.58,35.58,0,0,1-7.21-.91c-2.41-.55-4.81-1.23-7.22-1.83s-4.8-1.13-7.21-1.5l-7.21-1.13-7.22-1.23-7.21-1.39-7.21-1.5c-9.62-2.07-19.24-4.27-28.86-7Z" transform="translate(-466 -312.92)"/>
    <path d="M1345.18,555.22c-9.62,2.73-19.24,4.93-28.85,7l-7.22,1.5-7.21,1.39-7.22,1.23-7.21,1.13c-2.4.37-4.81.89-7.21,1.5s-4.81,1.28-7.22,1.83a35.58,35.58,0,0,1-7.21.91,32,32,0,0,1-7.21-.74,58.61,58.61,0,0,1-14.43-5.12,60.49,60.49,0,0,1-7.22-4.38c-1.2-.87-2.4-1.78-3.6-2.81a37,37,0,0,1-3.61-3.44v-3.5a38.23,38.23,0,0,1,3.61-3.44c1.2-1,2.4-1.94,3.6-2.81a61.83,61.83,0,0,1,7.22-4.38,58.61,58.61,0,0,1,14.43-5.12,32.64,32.64,0,0,1,7.21-.74,34.9,34.9,0,0,1,7.21.92c2.41.54,4.81,1.22,7.22,1.83s4.81,1.12,7.21,1.49l7.21,1.13,7.22,1.23,7.21,1.39,7.22,1.5c9.61,2.07,19.23,4.27,28.85,7Z" transform="translate(-466 -312.92)"/>
</svg>
